<svg width="271" height="258" viewBox="0 0 271 258" fill="none" xmlns="http://www.w3.org/2000/svg">
<path d="M271 129C271 200.245 210.335 258 135.5 258C60.6654 258 0 200.245 0 129C0 57.7553 60.6654 0 135.5 0C210.335 0 271 57.7553 271 129Z" fill="#FFD700"/>
<path d="M116.6 143C116.6 148.467 118.4 152.667 122 155.6C125.733 158.533 130.733 160 137 160C142.6 160 146.733 159.067 149.4 157.2C152.067 155.333 154.333 152.533 156.2 148.8C157.933 145.333 160.267 143.6 163.2 143.6H206.4C207.6 143.6 208.6 144.067 209.4 145C210.333 145.8 210.8 146.8 210.8 148C210.8 156.133 208.067 164.133 202.6 172C197.133 179.733 188.8 186.2 177.6 191.4C166.533 196.467 153 199 137 199C122.733 199 110 196.867 98.8 192.6C87.7333 188.2 78.9333 181.533 72.4 172.6C65.8667 163.533 62.6 152.267 62.6 138.8V115.2C62.6 101.733 65.8667 90.5333 72.4 81.6C78.9333 72.5333 87.7333 65.8667 98.8 61.6C110 57.2 122.733 55 137 55C153 55 166.533 57.6 177.6 62.8C188.8 67.8667 197.133 74.3333 202.6 82.2C208.067 89.9333 210.8 97.8667 210.8 106C210.8 107.2 210.333 108.267 209.4 109.2C208.6 110 207.6 110.4 206.4 110.4H163.2C160.267 110.4 157.933 108.667 156.2 105.2C154.333 101.467 152.067 98.6667 149.4 96.8C146.733 94.9333 142.6 94 137 94C130.733 94 125.733 95.4667 122 98.4C118.4 101.333 116.6 105.533 116.6 111V143Z" fill="#FF8C00"/>
</svg>
