<svg width="1709" height="1709" viewBox="0 0 1709 1709" fill="none" xmlns="http://www.w3.org/2000/svg">
<g filter="url(#filter0_d_186_122)">
<rect x="250" y="246" width="1209" height="1209" rx="240" fill="url(#paint0_radial_186_122)"/>
</g>
<g clip-path="url(#clip0_186_122)">
<path d="M628.275 677.399L615.496 712.112C553.378 690.756 529.075 696.18 506.935 756.347C482.6 822.435 507.174 893.229 537.779 923.221L524.219 960.081C474.086 924.047 440.86 828.7 472.205 743.567C506.978 649.112 565.3 655.667 628.275 677.399Z" fill="url(#paint1_linear_186_122)"/>
<path d="M798.245 1062.56C792.572 1063.7 786.82 1064.41 781.038 1064.67L819.34 960.636L802.09 913.758L746.756 1064.04C741.708 1063.62 736.435 1063.03 730.98 1062.29L793.871 891.436L776.621 844.567L698.761 1056.08C693.856 1054.86 688.876 1053.47 683.855 1051.94L768.411 822.244L758.059 794.095C758.019 794.011 757.969 793.945 757.938 793.865C748.854 776.04 757.751 757.297 763.661 744.84C764.525 743.02 765.61 740.721 766.499 738.668C765.958 738.481 765.427 738.276 764.892 738.081L653.468 1040.78C648.646 1038.71 643.96 1036.56 639.411 1034.33L751.708 729.268C750.856 728.229 750.102 727.114 749.454 725.938C745.311 718.135 746.364 709.915 749.765 698.602C712.169 682.057 683.504 665.097 672.151 652.739C669.734 650.544 667.482 648.172 665.415 645.645L530.66 1011.74C520.24 1040.06 572.279 1082.04 645.606 1108.99C718.934 1135.94 786.062 1136.94 796.218 1109.35L835.151 1003.6L827.541 982.955L798.245 1062.56ZM722.477 714.948L610.758 1018.44C606.095 1015.53 601.7 1012.62 597.537 1009.74L708.585 708.073C713.047 710.37 717.678 712.661 722.477 714.948ZM667.55 681.163C671.551 684.322 676.469 688.273 680.268 691.268L570.793 988.656C566.549 984.87 562.553 980.816 558.828 976.519L667.55 681.163ZM782.882 1104.37C779.263 1114.2 730.153 1122.31 651.385 1093.36C568.695 1062.96 540.757 1025.64 544.093 1016.6L554.286 988.904C550.957 997.956 578.901 1035.28 661.576 1065.67C740.352 1094.62 789.45 1086.51 793.072 1076.67L782.882 1104.37Z" fill="url(#paint2_linear_186_122)"/>
<path d="M1079.73 740.766L1092.5 775.48C1154.62 754.126 1178.92 759.556 1201.07 819.717C1225.39 885.802 1200.83 956.602 1170.21 986.591L1183.78 1023.45C1233.91 987.414 1267.13 892.074 1235.8 806.956C1201.03 712.486 1142.69 719.037 1079.73 740.766Z" fill="url(#paint3_linear_186_122)"/>
<path d="M1177.33 1075.11L1040.84 704.309C1045.98 718.287 990.709 751.466 917.378 778.417C844.048 805.368 780.426 815.895 775.281 801.917L911.773 1172.72C921.939 1200.31 989.055 1199.31 1062.39 1172.37C1135.73 1145.42 1187.75 1103.43 1177.33 1075.11ZM1040.45 744.539L1149.16 1039.89C1145.44 1044.19 1141.45 1048.24 1137.21 1052.02L1027.74 754.638C1031.54 751.65 1036.46 747.689 1040.45 744.539ZM999.416 771.446L1110.46 1073.1C1106.29 1075.99 1101.89 1078.91 1097.23 1081.8L985.517 778.305C990.317 776.031 994.952 773.745 999.422 771.446H999.416ZM955.864 791.495L1068.57 1097.7C1064.02 1099.93 1059.34 1102.08 1054.52 1104.15L941.551 797.263C946.407 795.373 951.18 793.45 955.87 791.495H955.864ZM911.173 808.437L1024.13 1115.31C1019.11 1116.84 1014.13 1118.23 1009.23 1119.45L896.535 813.295C901.366 811.746 906.247 810.127 911.18 808.437H911.173ZM865.401 822.465L977.003 1125.65C971.547 1126.4 966.278 1126.98 961.226 1127.4L850.359 826.23C855.256 825.085 860.272 823.83 865.408 822.465H865.401ZM909.74 1125.93L802.181 833.714C806.822 833.248 813.151 832.648 818.035 832.16L926.956 1128.05C921.174 1127.78 915.42 1127.07 909.747 1125.93H909.74ZM1056.62 1156.74C977.857 1185.69 928.756 1177.57 925.128 1167.74L914.935 1140.04C918.547 1149.88 967.652 1157.99 1046.43 1129.04C1129.12 1098.65 1157.06 1061.33 1153.72 1052.28L1163.91 1079.97C1167.26 1089.02 1139.31 1126.33 1056.63 1156.74H1056.62Z" fill="url(#paint4_linear_186_122)"/>
<path d="M801.698 562.819C801.698 562.819 802.236 544.914 791.095 537.574C779.953 530.233 765.824 548.179 801.698 562.819Z" fill="url(#paint5_linear_186_122)"/>
<path d="M979.815 599.381C979.815 599.381 980.409 579.124 993.528 579.724C1006.65 580.324 995.912 594.019 979.815 599.381Z" fill="url(#paint6_linear_186_122)"/>
<path d="M1014.76 596.069C1011.26 602.244 1011.08 614.244 1017.27 617.745C1023.45 621.246 1033.65 614.921 1037.16 608.736C1038.76 605.776 1039.13 602.309 1038.2 599.077C1037.27 595.846 1035.11 593.107 1032.18 591.449C1029.25 589.791 1025.79 589.345 1022.54 590.207C1019.29 591.068 1016.5 593.169 1014.78 596.059L1014.76 596.069Z" fill="url(#paint7_linear_186_122)"/>
<path d="M695.929 561.557C697.95 564.328 703.213 566.791 705.982 564.756C708.752 562.722 707.987 556.99 705.982 554.216C705.5 553.558 704.893 553.001 704.195 552.577C703.497 552.153 702.722 551.87 701.915 551.745C701.108 551.62 700.284 551.655 699.491 551.849C698.697 552.042 697.95 552.389 697.291 552.871C696.631 553.353 696.074 553.96 695.649 554.658C695.225 555.355 694.942 556.129 694.817 556.935C694.692 557.742 694.728 558.565 694.921 559.358C695.114 560.151 695.462 560.898 695.944 561.557H695.929Z" fill="url(#paint8_linear_186_122)"/>
<path d="M1041.31 636.323C1031.09 661.342 1021.56 671.788 1004.86 669.561C988.156 667.334 984.584 608.108 954.775 621.034C924.966 633.959 882.033 618.462 916.613 599.395C951.194 580.328 980.932 541.722 971.466 514.796C969.085 508.009 960.735 513.606 954.775 530.287C948.816 546.969 945.229 569.608 926.154 576.755C907.079 583.903 893.958 587.482 880.848 604.163C867.739 620.844 842.683 581.521 872.492 554.119C902.301 526.718 890.379 495.248 866.533 513.364C856.005 521.227 847.943 531.932 843.295 544.218C838.648 556.504 837.608 569.86 840.299 582.717C845.068 606.549 858.189 623.227 843.874 633.953C829.558 644.679 808.096 645.036 795.006 621.012C781.915 596.987 764.593 554.098 747.303 582.695C723.795 621.565 666.422 581.297 669.642 621.012C669.908 624.441 670.766 627.798 672.179 630.934C675.536 644.167 713.869 667.921 766.841 689.992C757.599 717.076 756.349 722.087 775.294 727.194C796.19 732.825 757.397 764.271 770.239 788.172C775.384 802.15 839.002 791.626 912.333 764.672C957.228 748.168 995.334 729.343 1016.96 714.007C1030.66 704.29 1037.79 695.99 1035.79 690.56C1035.7 690.343 1035.59 690.135 1035.45 689.939C1046.99 674.227 1060.58 654.247 1065.69 640.93C1075.21 616.063 1051.53 611.298 1041.31 636.323ZM979.816 669.561C972.666 669.098 969.678 648.724 955.966 649.991C942.254 651.258 938.673 663.153 922.579 656.011C906.485 648.87 893.957 636.348 878.458 644.089C862.958 651.83 852.059 672.692 835.151 673.289C818.243 673.885 782.465 641.38 782.465 658.717C782.465 676.053 782.363 676.265 769.891 694.732C771.921 688.042 772.173 680.939 770.624 674.121C768.137 661.966 754.385 625.625 775.287 630.39C796.19 635.155 802.143 651.718 823.018 649.991C830.716 649.529 838.193 647.24 844.829 643.312C851.464 639.385 857.066 633.932 861.17 627.408C868.7 613.703 892.77 623.239 913.045 633.366C933.319 643.493 954.782 623.239 967.303 636.348C979.825 649.457 986.966 670.002 979.816 669.549V669.561Z" fill="url(#paint9_linear_186_122)"/>
</g>
<defs>
<filter id="filter0_d_186_122" x="0" y="0" width="1709" height="1709" filterUnits="userSpaceOnUse" color-interpolation-filters="sRGB">
<feFlood flood-opacity="0" result="BackgroundImageFix"/>
<feColorMatrix in="SourceAlpha" type="matrix" values="0 0 0 0 0 0 0 0 0 0 0 0 0 0 0 0 0 0 127 0" result="hardAlpha"/>
<feOffset dy="4"/>
<feGaussianBlur stdDeviation="125"/>
<feComposite in2="hardAlpha" operator="out"/>
<feColorMatrix type="matrix" values="0 0 0 0 0.8125 0 0 0 0 0.8125 0 0 0 0 0.8125 0 0 0 1 0"/>
<feBlend mode="normal" in2="BackgroundImageFix" result="effect1_dropShadow_186_122"/>
<feBlend mode="normal" in="SourceGraphic" in2="effect1_dropShadow_186_122" result="shape"/>
</filter>
<radialGradient id="paint0_radial_186_122" cx="0" cy="0" r="1" gradientUnits="userSpaceOnUse" gradientTransform="translate(854.5 850.5) rotate(90) scale(604.5)">
<stop stop-color="white"/>
<stop offset="0.510417" stop-color="#FFF0BD"/>
<stop offset="1" stop-color="#FFDC64"/>
</radialGradient>
<linearGradient id="paint1_linear_186_122" x1="544.137" y1="663.832" x2="544.137" y2="960.081" gradientUnits="userSpaceOnUse">
<stop stop-color="#261B1B"/>
<stop offset="1" stop-color="#410000"/>
</linearGradient>
<linearGradient id="paint2_linear_186_122" x1="682.241" y1="645.645" x2="682.241" y2="1129.63" gradientUnits="userSpaceOnUse">
<stop stop-color="#261B1B"/>
<stop offset="1" stop-color="#410000"/>
</linearGradient>
<linearGradient id="paint3_linear_186_122" x1="1163.86" y1="727.203" x2="1163.86" y2="1023.45" gradientUnits="userSpaceOnUse">
<stop stop-color="#261B1B"/>
<stop offset="1" stop-color="#410000"/>
</linearGradient>
<linearGradient id="paint4_linear_186_122" x1="976.97" y1="704.309" x2="976.97" y2="1193" gradientUnits="userSpaceOnUse">
<stop stop-color="#261B1B"/>
<stop offset="1" stop-color="#410000"/>
</linearGradient>
<linearGradient id="paint5_linear_186_122" x1="790.239" y1="549.33" x2="790.194" y2="562.819" gradientUnits="userSpaceOnUse">
<stop stop-color="#FFD600"/>
<stop offset="1" stop-color="#E78A00"/>
</linearGradient>
<linearGradient id="paint6_linear_186_122" x1="989.623" y1="589.533" x2="989.595" y2="599.381" gradientUnits="userSpaceOnUse">
<stop stop-color="#FFD600"/>
<stop offset="1" stop-color="#E78A00"/>
</linearGradient>
<linearGradient id="paint7_linear_186_122" x1="1025.53" y1="604.243" x2="1025.49" y2="618.746" gradientUnits="userSpaceOnUse">
<stop stop-color="#FFD600"/>
<stop offset="1" stop-color="#E78A00"/>
</linearGradient>
<linearGradient id="paint8_linear_186_122" x1="701.274" y1="558.579" x2="701.253" y2="565.505" gradientUnits="userSpaceOnUse">
<stop stop-color="#FFD600"/>
<stop offset="1" stop-color="#E78A00"/>
</linearGradient>
<linearGradient id="paint9_linear_186_122" x1="869" y1="650.999" x2="868.707" y2="794.354" gradientUnits="userSpaceOnUse">
<stop stop-color="#FFD600"/>
<stop offset="1" stop-color="#E78A00"/>
</linearGradient>
<clipPath id="clip0_186_122">
<rect width="788" height="685" fill="white" transform="translate(460 508)"/>
</clipPath>
</defs>
</svg>
