<svg width="1410" height="280" viewBox="0 0 1410 280" fill="none" xmlns="http://www.w3.org/2000/svg">
<path d="M439.12 81.36C456.24 81.36 470.48 86 481.84 95.28C493.36 104.56 500.56 117.2 503.44 133.2H467.68C466.24 126.16 462.96 120.64 457.84 116.64C452.72 112.48 446.24 110.4 438.4 110.4C429.44 110.4 421.92 113.76 415.84 120.48C409.92 127.04 406.96 136.72 406.96 149.52C406.96 162.32 409.92 172.08 415.84 178.8C421.92 185.36 429.44 188.64 438.4 188.64C446.24 188.64 452.72 186.64 457.84 182.64C462.96 178.48 466.24 172.88 467.68 165.84H503.44C500.56 181.84 493.36 194.48 481.84 203.76C470.48 213.04 456.24 217.68 439.12 217.68C426.16 217.68 414.64 214.96 404.56 209.52C394.48 203.92 386.64 196 381.04 185.76C375.44 175.52 372.64 163.44 372.64 149.52C372.64 135.6 375.44 123.52 381.04 113.28C386.64 102.88 394.48 94.96 404.56 89.52C414.64 84.08 426.16 81.36 439.12 81.36ZM606.685 81.12C622.045 81.12 634.285 86.16 643.405 96.24C652.525 106.32 657.085 120.48 657.085 138.72V216H623.485V142.56C623.485 132 620.765 123.84 615.325 118.08C609.885 112.16 602.445 109.2 593.005 109.2C583.405 109.2 575.725 112.32 569.965 118.56C564.205 124.8 561.325 133.76 561.325 145.44V216H527.485V38.4H561.325V109.68C564.845 100.72 570.605 93.76 578.605 88.8C586.765 83.68 596.125 81.12 606.685 81.12ZM811.9 144.48C811.9 147.84 811.5 151.68 810.7 156H713.26C713.74 167.84 716.94 176.56 722.86 182.16C728.78 187.76 736.14 190.56 744.94 190.56C752.78 190.56 759.26 188.64 764.38 184.8C769.66 180.96 773.02 175.76 774.46 169.2H810.22C808.46 178.48 804.7 186.8 798.94 194.16C793.18 201.52 785.74 207.28 776.62 211.44C767.66 215.6 757.66 217.68 746.62 217.68C733.66 217.68 722.14 214.96 712.06 209.52C701.98 203.92 694.14 196 688.54 185.76C682.94 175.52 680.14 163.44 680.14 149.52C680.14 135.6 682.94 123.52 688.54 113.28C694.14 102.88 701.98 94.96 712.06 89.52C722.14 84.08 733.66 81.36 746.62 81.36C759.74 81.36 771.18 84.08 780.94 89.52C790.86 94.96 798.46 102.48 803.74 112.08C809.18 121.52 811.9 132.32 811.9 144.48ZM777.82 141.12C778.3 130.24 775.42 122 769.18 116.4C763.1 110.8 755.58 108 746.62 108C737.5 108 729.82 110.8 723.58 116.4C717.34 122 713.9 130.24 713.26 141.12H777.82ZM960.963 144.48C960.963 147.84 960.563 151.68 959.763 156H862.323C862.803 167.84 866.003 176.56 871.923 182.16C877.843 187.76 885.203 190.56 894.003 190.56C901.843 190.56 908.323 188.64 913.443 184.8C918.723 180.96 922.083 175.76 923.523 169.2H959.283C957.523 178.48 953.763 186.8 948.003 194.16C942.243 201.52 934.803 207.28 925.683 211.44C916.723 215.6 906.723 217.68 895.683 217.68C882.723 217.68 871.203 214.96 861.123 209.52C851.043 203.92 843.203 196 837.603 185.76C832.003 175.52 829.203 163.44 829.203 149.52C829.203 135.6 832.003 123.52 837.603 113.28C843.203 102.88 851.043 94.96 861.123 89.52C871.203 84.08 882.723 81.36 895.683 81.36C908.803 81.36 920.243 84.08 930.003 89.52C939.923 94.96 947.523 102.48 952.802 112.08C958.243 121.52 960.963 132.32 960.963 144.48ZM926.883 141.12C927.363 130.24 924.483 122 918.243 116.4C912.163 110.8 904.643 108 895.683 108C886.563 108 878.883 110.8 872.643 116.4C866.403 122 862.963 130.24 862.323 141.12H926.883ZM1018.83 108.48C1023.79 100 1030.35 93.36 1038.51 88.56C1046.67 83.6 1055.79 81.12 1065.87 81.12V117.36H1056.03C1031.23 117.36 1018.83 128.88 1018.83 151.92V216H984.985V83.04H1018.83V108.48ZM1130.43 81.36C1146.59 81.36 1159.55 85.44 1169.31 93.6C1179.07 101.76 1185.15 112.64 1187.55 126.24H1155.87C1154.59 119.84 1151.71 114.72 1147.23 110.88C1142.75 107.04 1136.91 105.12 1129.71 105.12C1123.95 105.12 1119.47 106.48 1116.27 109.2C1113.07 111.92 1111.47 115.6 1111.47 120.24C1111.47 123.92 1112.75 126.88 1115.31 129.12C1117.87 131.36 1121.07 133.12 1124.91 134.4C1128.75 135.68 1134.27 137.2 1141.47 138.96C1151.55 141.2 1159.71 143.6 1165.95 146.16C1172.35 148.56 1177.79 152.48 1182.27 157.92C1186.91 163.2 1189.23 170.4 1189.23 179.52C1189.23 190.88 1184.75 200.08 1175.79 207.12C1166.99 214.16 1155.07 217.68 1140.03 217.68C1122.75 217.68 1108.91 213.84 1098.51 206.16C1088.11 198.32 1081.79 187.2 1079.55 172.8H1111.95C1112.75 179.36 1115.63 184.56 1120.59 188.4C1125.55 192.08 1132.03 193.92 1140.03 193.92C1145.79 193.92 1150.19 192.56 1153.23 189.84C1156.27 186.96 1157.79 183.28 1157.79 178.8C1157.79 174.96 1156.43 171.84 1153.71 169.44C1151.15 167.04 1147.87 165.2 1143.87 163.92C1140.03 162.64 1134.51 161.12 1127.31 159.36C1117.39 157.12 1109.31 154.88 1103.07 152.64C1096.99 150.24 1091.71 146.48 1087.23 141.36C1082.91 136.24 1080.75 129.2 1080.75 120.24C1080.75 108.72 1085.15 99.36 1093.95 92.16C1102.75 84.96 1114.91 81.36 1130.43 81.36ZM1248.28 38.4V216H1214.44V38.4H1248.28ZM1301.69 83.04L1337.93 173.28L1371.53 83.04H1408.73L1327.37 279.36H1289.93L1319.93 212.16L1264.01 83.04H1301.69Z" fill="black"/>
<path d="M64.9188 65.4096L59.9885 78.8017C36.0245 70.5627 26.6485 72.6551 18.1072 95.8668C8.71926 121.363 18.1996 148.674 30.0065 160.245L24.7752 174.465C5.43442 160.563 -7.38349 123.78 4.70886 90.9366C18.124 54.4971 40.6237 57.0257 64.9188 65.4096Z" fill="url(#paint0_linear_199_2)"/>
<path d="M130.491 213.997C128.302 214.439 126.083 214.711 123.853 214.812L138.629 174.678L131.974 156.593L110.627 214.569C108.679 214.406 106.645 214.182 104.541 213.893L128.803 147.981L122.149 129.9L92.1114 211.5C90.2189 211.029 88.2976 210.493 86.3608 209.901L118.981 121.288L114.988 110.428C114.972 110.396 114.953 110.371 114.941 110.34C111.437 103.463 114.869 96.2321 117.149 91.4265C117.482 90.7243 117.901 89.8374 118.244 89.0453C118.035 88.9734 117.83 88.8943 117.624 88.8188L74.6378 205.597C72.7774 204.799 70.9696 203.969 69.2147 203.108L112.538 85.419C112.209 85.0182 111.918 84.5882 111.668 84.1343C110.069 81.1239 110.476 77.953 111.788 73.5884C97.2839 67.2058 86.2253 60.6625 81.8455 55.8953C80.9128 55.0483 80.0441 54.1334 79.2467 53.1582L27.2602 194.391C23.2403 205.318 43.3162 221.512 71.6049 231.909C99.8935 242.307 125.791 242.695 129.709 232.051L144.729 191.254L141.793 183.288L130.491 213.997ZM101.261 79.8944L58.1609 196.977C56.362 195.857 54.6662 194.733 53.0604 193.622L95.9011 77.2423C97.6225 78.1283 99.409 79.0124 101.261 79.8944ZM80.0706 66.8606C81.6141 68.0794 83.5113 69.6038 84.9768 70.759L42.743 185.487C41.1058 184.027 39.5639 182.463 38.1269 180.805L80.0706 66.8606ZM124.564 230.129C123.168 233.919 104.222 237.049 73.8343 225.881C41.9334 214.154 31.1555 199.757 32.4423 196.268L36.3748 185.583C35.0903 189.075 45.8707 203.474 77.7656 215.197C108.157 226.368 127.098 223.237 128.495 219.443L124.564 230.129Z" fill="url(#paint1_linear_199_2)"/>
<path d="M239.084 89.8534L244.01 103.245C267.977 95.0077 277.35 97.1025 285.895 120.312C295.28 145.806 285.802 173.12 273.991 184.69L279.226 198.908C298.564 185.007 311.382 148.226 299.292 115.389C285.88 78.9433 263.375 81.4707 239.084 89.8534Z" fill="url(#paint2_linear_199_2)"/>
<path d="M276.737 218.84L224.081 75.7891C226.064 81.1818 204.741 93.9819 176.451 104.379C148.161 114.776 123.617 118.838 121.632 113.445L174.289 256.496C178.21 267.14 204.103 266.753 232.395 256.359C260.687 245.966 280.756 229.765 276.737 218.84ZM223.931 91.3095L265.87 205.252C264.436 206.91 262.896 208.473 261.259 209.932L219.027 95.2054C220.492 94.0526 222.391 92.5246 223.931 91.3095ZM208.1 101.69L250.938 218.064C249.331 219.179 247.632 220.303 245.834 221.419L202.738 104.336C204.59 103.459 206.378 102.577 208.103 101.69H208.1ZM191.298 109.424L234.778 227.556C233.025 228.414 231.218 229.243 229.357 230.043L185.777 111.65C187.65 110.92 189.491 110.179 191.301 109.424H191.298ZM174.057 115.96L217.633 234.346C215.698 234.937 213.775 235.474 211.885 235.945L168.41 117.835C170.274 117.237 172.157 116.612 174.06 115.96H174.057ZM156.399 121.372L199.453 238.336C197.349 238.628 195.316 238.85 193.367 239.013L150.596 122.825C152.485 122.383 154.42 121.899 156.402 121.372H156.399ZM173.504 238.443L132.009 125.712C133.8 125.532 136.242 125.301 138.126 125.113L180.146 239.263C177.915 239.16 175.696 238.886 173.507 238.443H173.504ZM230.171 250.329C199.783 261.498 180.84 258.365 179.441 254.576L175.508 243.888C176.902 247.684 195.846 250.813 226.238 239.643C258.139 227.92 268.917 213.524 267.63 210.031L271.561 220.716C272.852 224.207 262.069 238.6 230.173 250.329H230.171Z" fill="url(#paint3_linear_199_2)"/>
<path d="M131.823 21.2071C131.823 21.2071 132.031 14.2996 127.732 11.4678C123.434 8.63597 117.983 15.5591 131.823 21.2071Z" fill="url(#paint4_linear_199_2)"/>
<path d="M200.538 35.3072C200.538 35.3072 200.767 27.4925 205.828 27.7238C210.889 27.9551 206.748 33.2388 200.538 35.3072Z" fill="url(#paint5_linear_199_2)"/>
<path d="M214.02 34.0306C212.67 36.413 212.598 41.0424 214.986 42.393C217.374 43.7436 221.306 41.3036 222.661 38.9176C223.277 37.7757 223.421 36.438 223.062 35.1913C222.703 33.9446 221.869 32.8882 220.74 32.2485C219.61 31.6088 218.275 31.4367 217.02 31.7692C215.765 32.1016 214.69 32.9121 214.026 34.027L214.02 34.0306Z" fill="url(#paint6_linear_199_2)"/>
<path d="M91.0186 20.7158C91.7981 21.7848 93.8285 22.7351 94.8971 21.9501C95.9656 21.1652 95.6706 18.9542 94.8971 17.884C94.711 17.6299 94.4767 17.4149 94.2075 17.2514C93.9382 17.0878 93.6394 16.9788 93.328 16.9306C93.0167 16.8824 92.6988 16.896 92.3927 16.9705C92.0866 17.0451 91.7982 17.1792 91.5439 17.3651C91.2896 17.551 91.0745 17.7852 90.9108 18.0542C90.7471 18.3232 90.638 18.6218 90.5898 18.933C90.5416 19.2441 90.5551 19.5617 90.6298 19.8676C90.7044 20.1735 90.8385 20.4617 91.0246 20.7158H91.0186Z" fill="url(#paint7_linear_199_2)"/>
<path d="M224.261 49.5613C220.319 59.2132 216.641 63.2434 210.199 62.3842C203.756 61.5249 202.378 38.6763 190.878 43.6629C179.378 48.6494 162.815 42.6706 176.156 35.3148C189.497 27.9591 200.969 13.0655 197.317 2.6778C196.398 0.0593059 193.177 2.21881 190.878 8.65418C188.579 15.0896 187.195 23.8234 179.836 26.5809C172.478 29.3385 167.415 30.719 162.358 37.1544C157.301 43.5898 147.634 28.4193 159.134 17.8483C170.634 7.27723 166.035 -4.8637 156.835 2.12534C152.774 5.15894 149.664 9.28851 147.871 14.0283C146.078 18.7681 145.677 23.9209 146.715 28.8807C148.554 38.0747 153.616 44.5089 148.094 48.647C142.571 52.785 134.291 52.9228 129.241 43.6545C124.191 34.3861 117.509 17.8399 110.838 28.8723C101.769 43.8678 79.6352 28.333 80.8777 43.6545C80.9802 44.9773 81.3113 46.2723 81.8563 47.4821C83.1515 52.5873 97.9399 61.7514 118.376 70.266C114.81 80.7148 114.328 82.6478 121.636 84.618C129.698 86.7906 114.732 98.922 119.686 108.142C121.671 113.535 146.215 109.475 174.504 99.0766C191.824 92.7095 206.525 85.4472 214.869 79.5308C220.155 75.7822 222.904 72.5801 222.134 70.4853C222.098 70.4013 222.054 70.3211 222.002 70.2456C226.454 64.1841 231.697 56.4761 233.667 51.3386C237.341 41.7454 228.203 39.9071 224.261 49.5613ZM200.538 62.3842C197.78 62.2056 196.627 54.3453 191.337 54.8343C186.047 55.3232 184.666 59.9119 178.457 57.1568C172.249 54.4017 167.415 49.5709 161.436 52.5573C155.456 55.5437 151.251 63.5921 144.729 63.8222C138.206 64.0523 124.403 51.5123 124.403 58.2006C124.403 64.8888 124.364 64.9703 119.552 72.0947C120.335 69.5137 120.433 66.7735 119.835 64.1434C118.876 59.4541 113.57 45.4341 121.634 47.2724C129.698 49.1108 131.995 55.5006 140.048 54.8343C143.018 54.6562 145.902 53.7729 148.462 52.2577C151.022 50.7424 153.183 48.639 154.767 46.122C157.671 40.8346 166.957 44.5137 174.779 48.4205C182.601 52.3272 190.881 44.5137 195.711 49.5709C200.542 54.6282 203.297 62.5543 200.538 62.3794V62.3842Z" fill="url(#paint8_linear_199_2)"/>
<defs>
<linearGradient id="paint0_linear_199_2" x1="32.4594" y1="60.1758" x2="32.4594" y2="174.465" gradientUnits="userSpaceOnUse">
<stop stop-color="#261B1B"/>
<stop offset="1" stop-color="#410000"/>
</linearGradient>
<linearGradient id="paint1_linear_199_2" x1="85.7381" y1="53.1582" x2="85.7381" y2="239.872" gradientUnits="userSpaceOnUse">
<stop stop-color="#261B1B"/>
<stop offset="1" stop-color="#410000"/>
</linearGradient>
<linearGradient id="paint2_linear_199_2" x1="271.542" y1="84.6211" x2="271.542" y2="198.908" gradientUnits="userSpaceOnUse">
<stop stop-color="#261B1B"/>
<stop offset="1" stop-color="#410000"/>
</linearGradient>
<linearGradient id="paint3_linear_199_2" x1="199.441" y1="75.7891" x2="199.441" y2="264.318" gradientUnits="userSpaceOnUse">
<stop stop-color="#261B1B"/>
<stop offset="1" stop-color="#410000"/>
</linearGradient>
<linearGradient id="paint4_linear_199_2" x1="127.402" y1="16.0031" x2="127.385" y2="21.2071" gradientUnits="userSpaceOnUse">
<stop stop-color="#FFD600"/>
<stop offset="1" stop-color="#E78A00"/>
</linearGradient>
<linearGradient id="paint5_linear_199_2" x1="204.322" y1="31.5081" x2="204.311" y2="35.3072" gradientUnits="userSpaceOnUse">
<stop stop-color="#FFD600"/>
<stop offset="1" stop-color="#E78A00"/>
</linearGradient>
<linearGradient id="paint6_linear_199_2" x1="218.176" y1="37.1842" x2="218.158" y2="42.7792" gradientUnits="userSpaceOnUse">
<stop stop-color="#FFD600"/>
<stop offset="1" stop-color="#E78A00"/>
</linearGradient>
<linearGradient id="paint7_linear_199_2" x1="93.0806" y1="19.5672" x2="93.0725" y2="22.2389" gradientUnits="userSpaceOnUse">
<stop stop-color="#FFD600"/>
<stop offset="1" stop-color="#E78A00"/>
</linearGradient>
<linearGradient id="paint8_linear_199_2" x1="157.787" y1="55.2231" x2="157.674" y2="110.528" gradientUnits="userSpaceOnUse">
<stop stop-color="#FFD600"/>
<stop offset="1" stop-color="#E78A00"/>
</linearGradient>
</defs>
</svg>
